<?xml version="1.0" encoding="utf-8"?>
<!-- Generator: Adobe Illustrator 23.0.4, SVG Export Plug-In . SVG Version: 6.00 Build 0)  -->
<svg version="1.1" id="Layer_1" xmlns="http://www.w3.org/2000/svg" xmlns:xlink="http://www.w3.org/1999/xlink" x="0px" y="0px"
	 viewBox="0 0 812 248" style="enable-background:new 0 0 812 248;" xml:space="preserve">
<style type="text/css">
	.st0{fill:#CCCCCC;}
	.st1{fill:#999999;}
	.st2{enable-background:new    ;}
	.st3{fill:#2C3E50;}
	.st4{fill:#95A5A6;}
	.st5{fill:#707C7D;}
	.st6{fill:#737373;}
</style>
<g>
	<g>
		<g>
			<path class="st0" d="M178.2,168.9c-4.5,1.5-9.4-0.9-11-5.4l-4.8-13.9c-1.5-4.5,0.9-9.4,5.4-11s9.4,0.9,11,5.4l4.8,13.9
				C185.1,162.4,182.7,167.4,178.2,168.9z M168.9,141.8c-2.8,0.9-4.2,4-3.3,6.7l4.8,13.9c0.9,2.8,4,4.2,6.7,3.3
				c2.8-0.9,4.2-4,3.3-6.7l-4.8-13.9C174.7,142.3,171.7,140.8,168.9,141.8z"/>
		</g>
	</g>
	<g>
		<g>
			<path class="st0" d="M224.4,177.8c-1.2,4.6-5.9,7.4-10.5,6.3l-14.3-3.6c-4.6-1.2-7.4-5.9-6.3-10.5c1.2-4.6,5.9-7.4,10.5-6.3
				l14.3,3.6C222.7,168.5,225.6,173.2,224.4,177.8z M196.6,170.9c-0.7,2.8,1,5.7,3.8,6.4l14.3,3.6c2.8,0.7,5.7-1,6.4-3.8
				s-1-5.7-3.8-6.4L203,167C200.2,166.3,197.3,168.1,196.6,170.9z"/>
		</g>
	</g>
	<g>
		<g>
			<path class="st0" d="M267.6,180.4c-0.1,4.8-4,8.6-8.8,8.5l-14.7-0.3c-4.8-0.1-8.6-4-8.5-8.8s4-8.6,8.8-8.5l14.7,0.3
				C263.9,171.7,267.7,175.6,267.6,180.4z M238.9,179.8c-0.1,2.9,2.3,5.3,5.2,5.4l14.7,0.3c2.9,0.1,5.3-2.3,5.4-5.2
				s-2.3-5.3-5.2-5.4l-14.7-0.3C241.4,174.6,239,176.9,238.9,179.8z"/>
		</g>
	</g>
	<g>
		<g>
			<path class="st0" d="M310.7,180c0,4.8-3.9,8.6-8.6,8.6h-14.7c-4.8,0-8.6-3.9-8.6-8.6c0-4.8,3.9-8.6,8.6-8.6h14.7
				C306.9,171.3,310.7,175.2,310.7,180z M282.1,180c0,2.9,2.4,5.3,5.3,5.3h14.7c2.9,0,5.3-2.4,5.3-5.3c0-2.9-2.4-5.3-5.3-5.3h-14.7
				C284.4,174.7,282.1,177,282.1,180z"/>
		</g>
	</g>
	<g>
		<g>
			<path class="st0" d="M356,180c0,4.8-3.9,8.6-8.6,8.6h-14.7c-4.8,0-8.6-3.9-8.6-8.6c0-4.8,3.9-8.6,8.6-8.6h14.7
				C352.1,171.4,356,175.2,356,180z M327.3,180c0,2.9,2.4,5.3,5.3,5.3h14.7c2.9,0,5.3-2.4,5.3-5.3c0-2.9-2.4-5.3-5.3-5.3h-14.7
				C329.7,174.7,327.3,177.1,327.3,180z"/>
		</g>
	</g>
	<g>
		<path class="st1" d="M201.6,169.1l-1.8,4c-0.1,0.2-0.3,0.3-0.5,0.2l-21.8-9.9c-0.2-0.1-0.3-0.3-0.2-0.5l1.8-4
			c0.1-0.2,0.3-0.3,0.5-0.2l21.8,9.9C201.6,168.7,201.7,169,201.6,169.1z"/>
	</g>
	<g>
		<path class="st1" d="M242.9,177.5l-0.5,4.3c0,0.2-0.2,0.3-0.4,0.3l-23.8-2.5c-0.2,0-0.3-0.2-0.3-0.4l0.5-4.3
			c0-0.2,0.2-0.3,0.4-0.3l23.8,2.5C242.8,177.2,242.9,177.3,242.9,177.5z"/>
	</g>
	<g>
		<path class="st1" d="M284.6,177.6v4.3c0,0.2-0.2,0.4-0.4,0.4h-24c-0.2,0-0.4-0.2-0.4-0.4v-4.3c0-0.2,0.2-0.4,0.4-0.4h24
			C284.4,177.2,284.6,177.4,284.6,177.6z"/>
	</g>
	<g>
		<path class="st1" d="M329.8,177.6v4.3c0,0.2-0.2,0.4-0.4,0.4h-24c-0.2,0-0.4-0.2-0.4-0.4v-4.3c0-0.2,0.2-0.4,0.4-0.4h24
			C329.6,177.2,329.8,177.4,329.8,177.6z"/>
	</g>
	<g>
		<g>
			<path class="st0" d="M399.8,179.6c0,4.8-3.9,8.6-8.6,8.6h-14.7c-4.8,0-8.6-3.9-8.6-8.6c0-4.8,3.9-8.6,8.6-8.6h14.7
				C395.9,171,399.8,174.9,399.8,179.6z M371.2,179.6c0,2.9,2.4,5.3,5.3,5.3h14.7c2.9,0,5.3-2.4,5.3-5.3c0-2.9-2.4-5.3-5.3-5.3
				h-14.7C373.5,174.3,371.2,176.7,371.2,179.6z"/>
		</g>
	</g>
	<g>
		<g>
			<path class="st0" d="M444.5,178c0.1,4.8-3.8,8.7-8.5,8.8l-14.7,0.2c-4.8,0.1-8.7-3.8-8.8-8.5s3.8-8.7,8.5-8.8l14.7-0.2
				C440.5,169.4,444.5,173.2,444.5,178z M415.9,178.4c0,2.9,2.4,5.3,5.4,5.2l14.7-0.2c2.9,0,5.3-2.4,5.2-5.4c0-2.9-2.4-5.3-5.4-5.2
				l-14.7,0.2C418.2,173.1,415.8,175.5,415.9,178.4z"/>
		</g>
	</g>
	<g>
		<path class="st1" d="M373.7,177.2v4.3c0,0.2-0.2,0.4-0.4,0.4h-24c-0.2,0-0.4-0.2-0.4-0.4v-4.3c0-0.2,0.2-0.4,0.4-0.4h24
			C373.5,176.9,373.7,177,373.7,177.2z"/>
	</g>
	<g>
		<path class="st1" d="M418.3,175.9l0.1,4.3c0,0.2-0.2,0.4-0.4,0.4l-24,0.3c-0.2,0-0.4-0.2-0.4-0.4l-0.1-4.3c0-0.2,0.2-0.4,0.4-0.4
			l24-0.3C418.2,175.6,418.3,175.7,418.3,175.9z"/>
	</g>
	<g>
		<g>
			<path class="st0" d="M488.4,177c0.1,4.8-3.8,8.7-8.5,8.8l-14.7,0.2c-4.8,0.1-8.7-3.8-8.8-8.5c-0.1-4.8,3.8-8.7,8.5-8.8l14.7-0.2
				C484.4,168.4,488.3,172.2,488.4,177z M459.7,177.4c0,2.9,2.4,5.3,5.4,5.2l14.7-0.2c2.9,0,5.3-2.4,5.2-5.4c0-2.9-2.4-5.3-5.4-5.2
				l-14.7,0.2C462,172,459.7,174.4,459.7,177.4z"/>
		</g>
	</g>
	<g>
		<g>
			<path class="st0" d="M533.6,176.3c0.1,4.8-3.8,8.7-8.5,8.8l-14.7,0.2c-4.8,0.1-8.7-3.8-8.8-8.5c-0.1-4.8,3.8-8.7,8.5-8.8
				l14.7-0.2C529.6,167.7,533.5,171.6,533.6,176.3z M505,176.7c0,2.9,2.4,5.3,5.4,5.2l14.7-0.2c2.9,0,5.3-2.4,5.2-5.4
				c0-2.9-2.4-5.3-5.4-5.2l-14.7,0.2C507.2,171.4,504.9,173.8,505,176.7z"/>
		</g>
	</g>
	<g>
		<path class="st1" d="M462.2,174.9l0.1,4.3c0,0.2-0.2,0.4-0.4,0.4l-24,0.3c-0.2,0-0.4-0.2-0.4-0.4l-0.1-4.3c0-0.2,0.2-0.4,0.4-0.4
			l24-0.3C462,174.6,462.2,174.7,462.2,174.9z"/>
	</g>
	<g>
		<path class="st1" d="M507.4,174.3l0.1,4.3c0,0.2-0.2,0.4-0.4,0.4l-24,0.3c-0.2,0-0.4-0.2-0.4-0.4l-0.1-4.3c0-0.2,0.2-0.4,0.4-0.4
			l24-0.3C507.3,173.9,507.4,174.1,507.4,174.3z"/>
	</g>
	<g>
		<g>
			<path class="st0" d="M577.2,175.5c0.1,4.8-3.8,8.7-8.5,8.8l-14.7,0.2c-4.8,0.1-8.7-3.8-8.8-8.5s3.8-8.7,8.5-8.8l14.7-0.2
				C573.2,166.9,577.1,170.7,577.2,175.5z M548.5,175.9c0,2.9,2.4,5.3,5.4,5.2l14.7-0.2c2.9,0,5.3-2.4,5.2-5.4
				c0-2.9-2.4-5.3-5.4-5.2l-14.7,0.2C550.8,170.6,548.5,173,548.5,175.9z"/>
		</g>
	</g>
	<g>
		<path class="st1" d="M551,173.5l0.1,4.3c0,0.2-0.2,0.4-0.4,0.4l-24,0.3c-0.2,0-0.4-0.2-0.4-0.4l-0.1-4.3c0-0.2,0.2-0.4,0.4-0.4
			l24-0.3C550.8,173.1,551,173.3,551,173.5z"/>
	</g>
	<g>
		<g>
			<path class="st0" d="M621,174.5c0.1,4.8-3.8,8.7-8.5,8.8l-14.7,0.2c-4.8,0.1-8.7-3.8-8.8-8.5s3.8-8.7,8.5-8.8l14.7-0.2
				C617,165.9,621,169.7,621,174.5z M592.4,174.9c0,2.9,2.4,5.3,5.4,5.2l14.7-0.2c2.9,0,5.3-2.4,5.2-5.4c0-2.9-2.4-5.3-5.4-5.2
				l-14.7,0.2C594.7,169.6,592.3,172,592.4,174.9z"/>
		</g>
	</g>
	<g>
		<g>
			<path class="st0" d="M666.3,173.9c0.1,4.8-3.8,8.7-8.5,8.8l-14.7,0.2c-4.8,0.1-8.7-3.8-8.8-8.5s3.8-8.7,8.5-8.8l14.7-0.2
				C662.3,165.3,666.2,169.1,666.3,173.9z M637.6,174.3c0,2.9,2.4,5.3,5.4,5.2l14.7-0.2c2.9,0,5.3-2.4,5.2-5.4
				c0-2.9-2.4-5.3-5.4-5.2l-14.7,0.2C639.9,168.9,637.6,171.3,637.6,174.3z"/>
		</g>
	</g>
	<g>
		<path class="st1" d="M594.9,172.5l0.1,4.3c0,0.2-0.2,0.4-0.4,0.4l-24,0.3c-0.2,0-0.4-0.2-0.4-0.4l-0.1-4.3c0-0.2,0.2-0.4,0.4-0.4
			l24-0.3C594.7,172.1,594.8,172.3,594.9,172.5z"/>
	</g>
	<g>
		<path class="st1" d="M640.1,171.8l0.1,4.3c0,0.2-0.2,0.4-0.4,0.4l-24,0.3c-0.2,0-0.4-0.2-0.4-0.4l-0.1-4.3c0-0.2,0.2-0.4,0.4-0.4
			l24-0.3C639.9,171.5,640.1,171.6,640.1,171.8z"/>
	</g>
	<g>
		<g>
			<path class="st0" d="M709.8,173c0.1,4.8-3.8,8.7-8.5,8.8l-14.7,0.2c-4.8,0.1-8.7-3.8-8.8-8.5s3.8-8.7,8.5-8.8l14.7-0.2
				C705.8,164.5,709.8,168.3,709.8,173z M681.2,173.4c0,2.9,2.4,5.3,5.4,5.2l14.7-0.2c2.9,0,5.3-2.4,5.2-5.4c0-2.9-2.4-5.3-5.4-5.2
				l-14.7,0.2C683.5,168.1,681.1,170.5,681.2,173.4z"/>
		</g>
	</g>
	<g>
		<path class="st1" d="M683.7,171l0.1,4.3c0,0.2-0.2,0.4-0.4,0.4l-24,0.3c-0.2,0-0.4-0.2-0.4-0.4l-0.1-4.3c0-0.2,0.2-0.4,0.4-0.4
			l24-0.3C683.5,170.7,683.7,170.8,683.7,171z"/>
	</g>
	<g>
		<g>
			<path class="st0" d="M753.7,172c0.1,4.8-3.8,8.7-8.5,8.8l-14.7,0.2c-4.8,0.1-8.7-3.8-8.8-8.5c-0.1-4.8,3.8-8.7,8.5-8.8l14.7-0.2
				C749.7,163.5,753.6,167.3,753.7,172z M725,172.4c0,2.9,2.4,5.3,5.4,5.2l14.7-0.2c2.9,0,5.3-2.4,5.2-5.4c0-2.9-2.4-5.3-5.4-5.2
				l-14.7,0.2C727.3,167.1,725,169.5,725,172.4z"/>
		</g>
	</g>
	<g>
		<path class="st1" d="M727.5,170l0.1,4.3c0,0.2-0.2,0.4-0.4,0.4l-24,0.3c-0.2,0-0.4-0.2-0.4-0.4l-0.1-4.3c0-0.2,0.2-0.4,0.4-0.4
			l24-0.3C727.3,169.7,727.5,169.8,727.5,170z"/>
	</g>
	<g class="st2">
		<path class="st3" d="M80,71.5h14.8l3.7,62.4H84.1l-1.5-25.5l-8.7,25.5H59.5l-9.2-26.5l-1.7,26.5H34.2l4-62.4H53l13.7,39.1L80,71.5
			z"/>
		<path class="st3" d="M239.2,117.8c-0.7,0.1-1.5,0.2-2.2,0.3c-0.7,0.1-1.5,0.1-2.3,0.2V134h-14.4V71.9h14.4c3.6,0.1,6.9,0.7,10,2
			c3.1,1.2,5.8,2.9,8.2,5c2.3,2.1,4.2,4.5,5.5,7.3s2,5.7,2,8.9c0,3.3-0.7,6.4-2.1,9.3s-3.4,5.3-5.9,7.4l13.8,22.2h-16.9L239.2,117.8
			z M234.7,103.8c1.5-0.1,3-0.3,4.4-0.8s2.6-1.1,3.7-1.9c1-0.8,1.9-1.7,2.5-2.8c0.6-1,0.9-2.2,0.9-3.4c0-1.2-0.3-2.3-0.9-3.3
			c-0.6-1-1.4-1.9-2.5-2.7c-1-0.8-2.3-1.4-3.7-1.9s-2.8-0.8-4.4-0.8V103.8z"/>
		<path class="st3" d="M320.3,71.6h14.4v62.3h-15.5l-20.4-36.3v36.3h-14.4V71.8H300l20.3,36.3V71.6z"/>
		<path class="st3" d="M368.9,133.9h-14.4V71.5h14.4V133.9z"/>
		<path class="st3" d="M425.3,71.6h14.4v62.3h-15.5l-20.4-36.3v36.3h-14.4V71.8H405l20.3,36.3V71.6z"/>
		<path class="st3" d="M510.2,99v34.9h-14.4v-1.5c-1.6,0.6-3.2,1-4.9,1.2c-1.7,0.3-3.3,0.4-5,0.4c-4,0-8-0.8-11.8-2.3
			s-7.3-3.8-10.4-6.9s-5.3-6.5-6.8-10.3s-2.2-7.7-2.2-11.8c0-4,0.7-8,2.2-11.8s3.8-7.3,6.8-10.4c3.1-3.1,6.5-5.3,10.4-6.9
			c3.8-1.5,7.8-2.3,11.8-2.3s8,0.8,11.8,2.3s7.3,3.8,10.4,6.9l-10.2,10.2c-1.6-1.6-3.5-2.9-5.6-3.7c-2.1-0.8-4.2-1.2-6.4-1.2
			c-2.2,0-4.3,0.4-6.4,1.2c-2.1,0.8-4,2.1-5.6,3.7s-2.9,3.5-3.7,5.6c-0.8,2.1-1.3,4.2-1.3,6.4c0,2.2,0.4,4.3,1.3,6.4
			c0.8,2.1,2.1,4,3.7,5.6c1.5,1.5,3.1,2.6,5,3.4c1.8,0.8,3.7,1.3,5.7,1.4s3.9,0,5.8-0.6c1.9-0.5,3.7-1.4,5.4-2.5v-3.1h-12.5V99
			H510.2z"/>
		<path class="st3" d="M547.5,135.1c-2,0-3.9-0.3-5.9-0.8s-3.8-1.4-5.6-2.5c-3.1-2-5.4-4.5-7.1-7.7c-1.7-3.1-2.5-6.6-2.5-10.3h14.4
			c0,1.7,0.4,3,1.1,3.9c0.7,0.9,1.4,1.6,2,1.9c1,0.7,2.1,1,3.3,1.1s2.3-0.2,3.5-0.7c0.8-0.3,1.4-0.8,1.9-1.3s0.8-1,1.1-1.5
			s0.4-0.9,0.5-1.4s0.1-0.8,0.1-1.1c0-0.3,0-0.6-0.1-1.1s-0.2-0.9-0.5-1.4s-0.6-1-1.1-1.5s-1.1-0.9-1.9-1.3c-0.6-0.3-1.3-0.5-2-0.8
			c-0.7-0.2-1.5-0.5-2.2-0.8c-1.4-0.5-2.9-1-4.4-1.5c-1.5-0.6-3.1-1.3-4.6-2.3c-2-1.2-3.7-2.8-5-4.7c-1.4-1.9-2.3-3.9-2.9-6
			c-0.6-2.2-0.8-4.4-0.6-6.7c0.2-2.3,0.8-4.5,1.9-6.6c1-1.9,2.3-3.6,3.8-5s3.2-2.5,5.1-3.4c1.9-0.8,3.9-1.3,6-1.5
			c2.2-0.2,4.3,0,6.5,0.6c2.1,0.5,4.1,1.3,5.8,2.4s3.2,2.4,4.5,4s2.2,3.3,2.9,5.2c0.7,1.9,1,3.9,1,6h-14.3c0-1.3-0.4-2.2-1.2-2.7
			s-1.5-0.8-2.2-1c-0.1,0-0.4,0-0.8-0.1c-0.4-0.1-0.9-0.1-1.4,0s-1.1,0.3-1.7,0.6c-0.6,0.3-1,0.8-1.4,1.5c-0.5,0.9-0.5,1.9-0.3,2.8
			c0.3,1,0.8,1.8,1.7,2.3c0.8,0.5,1.7,0.9,2.6,1.2s2,0.7,3.1,1.1c1,0.3,1.9,0.6,2.9,0.9s2,0.7,3,1.2c3.7,1.7,6.6,4.2,8.7,7.5
			c2.1,3.3,3.2,6.9,3.2,11c0,4-1.1,7.6-3.2,10.9c-2.1,3.3-5,5.8-8.7,7.5c-1.5,0.7-3,1.2-4.5,1.5C550.5,135,549,135.1,547.5,135.1z"
			/>
		<path class="st3" d="M622.3,71.4v14.4h-12V134H596V85.7h-11.9V71.4H622.3z"/>
		<path class="st3" d="M676,133.9l-2.5-7.6H654l-2.5,7.6h-15.2l21.2-62.3H671l20.1,62.3H676z M658.9,112H669l-4.9-15.1L658.9,112z"
			/>
		<path class="st3" d="M726.2,117.8c-0.7,0.1-1.5,0.2-2.2,0.3c-0.7,0.1-1.5,0.1-2.3,0.2V134h-14.4V71.9h14.4c3.6,0.1,6.9,0.7,10,2
			c3.1,1.2,5.8,2.9,8.2,5c2.3,2.1,4.2,4.5,5.5,7.3s2,5.7,2,8.9c0,3.3-0.7,6.4-2.1,9.3c-1.4,2.9-3.4,5.3-5.9,7.4l13.8,22.2h-16.9
			L726.2,117.8z M721.7,103.8c1.5-0.1,3-0.3,4.4-0.8s2.6-1.1,3.7-1.9c1-0.8,1.9-1.7,2.5-2.8c0.6-1,0.9-2.2,0.9-3.4
			c0-1.2-0.3-2.3-0.9-3.3c-0.6-1-1.4-1.9-2.5-2.7c-1-0.8-2.3-1.4-3.7-1.9s-2.8-0.8-4.4-0.8V103.8z"/>
	</g>
	<g>
		<circle class="st4" cx="162.9" cy="106.4" r="41.1"/>
	</g>
	<g>
		<path class="st5" d="M143.4,134.5c-10.8-20-3.5-44.9,16.5-55.8c9.4-5.1,19.9-6.1,29.5-3.7c-12.6-10.6-30.8-13.1-46.2-4.8
			c-20,10.8-27.3,35.8-16.5,55.8c5.7,10.5,15.4,17.5,26.2,20.2C149.2,143.1,145.9,139.2,143.4,134.5z"/>
	</g>
	<g>
		<g>
			<path class="st1" d="M175.2,65.9c1.2-2.6,9-6.8,9-6.8s1.5,8.7,0.2,11.2c-1.2,2.6-4.3,3.6-6.9,2.4S173.9,68.5,175.2,65.9z"/>
		</g>
		<g>
			<path class="st6" d="M178,72.4c-2.6-1.2-3.6-4.3-2.4-6.9c0.1-0.3,0.4-0.6,0.7-0.9c-0.5,0.5-0.9,0.9-1.1,1.4
				c-1.2,2.6-0.2,5.6,2.4,6.9c2,1,4.4,0.6,5.9-1C181.9,73,179.8,73.3,178,72.4z"/>
		</g>
	</g>
	<g>
		<g>
			<path class="st1" d="M145,73.8c-1.4-2.5-0.4-11.2-0.4-11.2s8,3.8,9.3,6.3c1.4,2.5,0.5,5.6-2,7C149.5,77.1,146.4,76.2,145,73.8z"
				/>
		</g>
		<g>
			<path class="st6" d="M151.9,75.2c-2.5,1.4-5.6,0.5-7-2c-0.2-0.3-0.3-0.7-0.4-1.1c0.1,0.7,0.3,1.3,0.5,1.7c1.4,2.5,4.5,3.4,7,2
				c2-1.1,3-3.3,2.6-5.4C154.7,72.3,153.7,74.2,151.9,75.2z"/>
		</g>
	</g>
	<g>
		<g>
			<path class="st1" d="M123.4,91.2c-2.5-1.4-6.1-9.4-6.1-9.4s8.8-0.9,11.2,0.5c2.5,1.4,3.3,4.6,1.9,7
				C129,91.8,125.8,92.6,123.4,91.2z"/>
		</g>
		<g>
			<path class="st6" d="M130,88.9c-1.4,2.5-4.6,3.3-7,1.9c-0.3-0.2-0.6-0.4-0.9-0.7c0.4,0.5,0.9,1,1.3,1.2c2.5,1.4,5.6,0.6,7-1.9
				c1.1-2,0.9-4.3-0.6-5.9C130.9,85,131,87.1,130,88.9z"/>
		</g>
	</g>
	<g>
		<g>
			<path class="st1" d="M127.3,122.3c-2.5,1.4-11.2,0.3-11.2,0.3s3.8-8,6.3-9.3c2.5-1.4,5.6-0.5,7,2
				C130.7,117.8,129.8,120.9,127.3,122.3z"/>
		</g>
		<g>
			<path class="st6" d="M128.7,115.4c1.4,2.5,0.5,5.6-2,7c-0.3,0.2-0.7,0.3-1.1,0.4c0.7-0.1,1.3-0.2,1.7-0.5c2.5-1.4,3.4-4.5,2-7
				c-1.1-2-3.2-3-5.4-2.6C125.9,112.6,127.7,113.6,128.7,115.4z"/>
		</g>
	</g>
	<g>
		<g>
			<path class="st1" d="M150.3,145.6c-1.3,2.5-9.2,6.5-9.2,6.5s-1.2-8.7,0.1-11.3s4.4-3.5,6.9-2.2
				C150.7,140,151.6,143.1,150.3,145.6z"/>
		</g>
		<g>
			<path class="st6" d="M147.7,139.1c2.5,1.3,3.5,4.4,2.2,6.9c-0.1,0.3-0.4,0.6-0.7,0.9c0.5-0.5,0.9-0.9,1.1-1.3
				c1.3-2.5,0.3-5.6-2.2-6.9c-2-1-4.4-0.7-5.9,0.8C143.8,138.3,145.9,138.1,147.7,139.1z"/>
		</g>
	</g>
	<g>
		<g>
			<path class="st0" d="M182.8,136.4c1.5,2.4,0.8,11.2,0.8,11.2s-8.1-3.5-9.6-5.9s-0.7-5.6,1.7-7.1
				C178.1,133.2,181.3,134,182.8,136.4z"/>
		</g>
		<g>
			<path class="st1" d="M175.8,135.3c2.4-1.5,5.6-0.7,7.1,1.7c0.2,0.3,0.3,0.7,0.4,1.1c-0.1-0.7-0.3-1.3-0.5-1.7
				c-1.5-2.4-4.6-3.2-7.1-1.7c-1.9,1.2-2.8,3.4-2.4,5.5C173.1,138.2,174.1,136.3,175.8,135.3z"/>
		</g>
	</g>
	<g>
		<g>
			<path class="st0" d="M197.7,114.5c2.6,1.2,6.8,9,6.8,9s-8.7,1.5-11.2,0.3c-2.6-1.2-3.6-4.3-2.4-6.9
				C192.1,114.3,195.1,113.2,197.7,114.5z"/>
		</g>
		<g>
			<path class="st1" d="M191.2,117.3c1.2-2.6,4.3-3.6,6.9-2.4c0.3,0.1,0.6,0.4,0.9,0.7c-0.5-0.5-0.9-0.9-1.4-1.1
				c-2.6-1.2-5.6-0.2-6.9,2.4c-1,2-0.5,4.4,1,5.9C190.6,121.2,190.4,119.1,191.2,117.3z"/>
		</g>
	</g>
	<g>
		<g>
			<path class="st0" d="M194.6,84.1c2.5-1.3,11.3,0,11.3,0s-4.1,7.8-6.6,9.1s-5.6,0.3-6.9-2.3C191.1,88.5,192.1,85.4,194.6,84.1z"/>
		</g>
		<g>
			<path class="st1" d="M193,90.9c-1.3-2.5-0.3-5.6,2.3-6.9c0.3-0.1,0.7-0.3,1.1-0.3c-0.7,0.1-1.3,0.2-1.7,0.4
				c-2.5,1.3-3.5,4.4-2.3,6.9c1,2,3.1,3.1,5.3,2.8C195.7,93.8,193.9,92.7,193,90.9z"/>
		</g>
	</g>
</g>
</svg>
